<svg width="620" height="530" viewBox="0 0 620 530" fill="none" xmlns="http://www.w3.org/2000/svg" role="img" aria-labelledby="title desc">
<title id="title">Calle 5 skull and sombrero logo</title><desc id="desc">A rugged gold skull wearing a sombrero, framed by flames above the Calle 5 name.</desc>
<defs><linearGradient id="gold" x1="0" y1="0" x2="0" y2="1"><stop stop-color="#F6D27A"/><stop offset=".55" stop-color="#C98A2F"/><stop offset="1" stop-color="#8E531D"/></linearGradient><filter id="rough"><feTurbulence baseFrequency=".8" numOctaves="2" seed="4" result="n"/><feDisplacementMap in="SourceGraphic" in2="n" scale="1.3"/></filter></defs>
<g stroke="url(#gold)" stroke-width="11" stroke-linecap="round" stroke-linejoin="round" filter="url(#rough)">
<path d="M107 215C62 167 118 128 201 112c18-66 57-94 109-94s91 28 109 94c83 16 139 55 94 103-48-28-118-42-203-42S155 187 107 215Z" fill="#100F0C"/>
<path d="M205 111c70-16 140-16 210 0M137 175c107-41 239-41 346 0"/>
<path d="M235 104l22-23 26 23 27-24 27 24 28-23 22 23" stroke-width="7"/>
<path d="M193 230c-29 29-37 68-20 105 9 19 27 33 48 40v49l89 48 89-48v-49c21-7 39-21 48-40 17-37 9-76-20-105-63-32-171-32-234 0Z" fill="#100F0C"/>
<path d="M221 273c27-16 57-3 61 27 2 24-13 43-35 40-24-3-38-42-26-67Zm178 0c-27-16-57-3-61 27-2 24 13 43 35 40 24-3 38-42 26-67Z" fill="url(#gold)" stroke-width="7"/>
<path d="M310 302l-22 66 22 12 22-12-22-66Z" fill="url(#gold)" stroke-width="6"/>
<path d="M240 388c43 28 97 28 140 0v37c-46 35-94 35-140 0v-37Z" fill="url(#gold)" stroke-width="7"/>
<path d="M259 397v36m25-27v42m26-39v47m26-50v42m25-51v36" stroke="#100F0C" stroke-width="7"/>
<path d="M187 373c-56-17-91-50-105-99 37 28 55 54 53 78 20-21 27-51 20-90 36 36 48 72 32 111Zm246 0c56-17 91-50 105-99-37 28-55 54-53 78-20-21-27-51-20-90-36 36-48 72-32 111Z" fill="url(#gold)"/>
<path d="M183 458h254v55H183z" fill="#100F0C"/>
</g>
<text x="310" y="503" text-anchor="middle" fill="url(#gold)" font-family="Georgia,serif" font-weight="900" font-size="66" letter-spacing="4">CALLE 5</text>
</svg>
